<svg xmlns="http://www.w3.org/2000/svg" width="22" height="22" viewBox="0 0 22 22"><g><g><path fill="#fff" d="M8.8 19.8c0 1.21-.99 2.2-2.2 2.2-1.21 0-2.2-.99-2.2-2.2 0-1.21.99-2.2 2.2-2.2 1.21 0 2.2.99 2.2 2.2zM3.63 0l.99 2.2H20.9c.66 0 1.1.44 1.1 1.1 0 .22 0 .33-.22.55L17.82 11c-.33.66-.99 1.1-1.87 1.1H7.81l-.99 1.87v.11c0 .11.11.22.22.22H19.8v2.2H6.6c-1.21 0-2.2-.99-2.2-2.2 0-.33.11-.77.22-1.1l1.54-2.64L2.2 2.2H0V0zM19.8 19.8c0 1.21-.99 2.2-2.2 2.2-1.21 0-2.2-.99-2.2-2.2 0-1.21.99-2.2 2.2-2.2 1.21 0 2.2.99 2.2 2.2z"/></g></g></svg>